<svg xmlns="http://www.w3.org/2000/svg" version="1.1" xmlns:xlink="http://www.w3.org/1999/xlink" xmlns:svgjs="http://svgjs.dev/svgjs" width="1000" height="1000" viewBox="0 0 1000 1000"><rect width="1000" height="1000" fill="#ffffff"></rect><g transform="matrix(0.7,0,0,0.7,149.57575757575762,282.1265587044535)"><svg viewBox="0 0 396 247" data-background-color="#046380" preserveAspectRatio="xMidYMid meet" height="623" width="1000" xmlns="http://www.w3.org/2000/svg" xmlns:xlink="http://www.w3.org/1999/xlink"><g id="tight-bounds" transform="matrix(1,0,0,1,0.2400000000000091,-0.09999999999999432)"><svg viewBox="0 0 395.52 247.2" height="247.2" width="395.52"><g><svg></svg></g><g><svg viewBox="0 0 395.52 247.2" height="247.2" width="395.52"><g transform="matrix(1,0,0,1,75.54432,111.59530341708542)"><svg viewBox="0 0 244.43135999999998 24.009393165829145" height="24.009393165829145" width="244.43135999999998"><g><svg viewBox="0 0 244.43135999999998 24.009393165829145" height="24.009393165829145" width="244.43135999999998"><g><svg viewBox="0 0 244.43135999999998 24.009393165829145" height="24.009393165829145" width="244.43135999999998"><g><svg viewBox="0 0 244.43135999999998 24.009393165829145" height="24.009393165829145" width="244.43135999999998"><g id="textblocktransform"><svg viewBox="0 0 244.43135999999998 24.009393165829145" height="24.009393165829145" width="244.43135999999998" id="textblock"><g><svg viewBox="0 0 244.43135999999998 24.009393165829145" height="24.009393165829145" width="244.43135999999998"><g transform="matrix(1,0,0,1,0,0)"><svg width="244.43135999999998" viewBox="5.449999809265137 -30.780000686645508 318.3699951171875 31.280000686645508" height="24.009393165829145" data-palette-color="#ffffff"><path d="M5.45 0L5.45-30.33 8.28-30.33 25.45-1.7 25.2-1.7 25.2-30.33 27.05-30.33 27.05 0 24.4 0 7.08-28.9 7.3-28.9 7.3 0 5.45 0ZM55.72 0L37.9 0 37.9-30.33 55.72-30.33 55.72-28.78 39.75-28.78 39.75-16.18 54.82-16.18 54.82-14.6 39.75-14.6 39.75-1.6 55.72-1.6 55.72 0ZM66.09-13.85L82.15-30.33 84.77-30.33 66.09-10.95 66.09-13.85ZM69.82-16L71.3-17.23 85.57 0 83.02 0 69.82-16ZM64.8 0L64.8-30.33 66.7-30.33 66.7 0 64.8 0ZM94.64 0L92.79 0 92.79-30.33 102.67-30.33Q107.59-30.33 109.99-27.91 112.39-25.5 112.39-21.7L112.39-21.7Q112.39-17.88 109.99-15.46 107.59-13.05 102.67-13.05L102.67-13.05 94.64-13.05 94.64 0ZM112.79 0L110.44 0 101.04-13.28 103.19-13.28 112.79 0ZM94.64-28.78L94.64-14.58 102.69-14.58Q106.49-14.58 108.49-16.56 110.49-18.55 110.49-21.75L110.49-21.75Q110.49-25.03 108.48-26.9 106.47-28.78 102.67-28.78L102.67-28.78 94.64-28.78ZM119.77 0L117.87 0 128.42-30.33 130.44-30.33 140.94 0 138.99 0 135.94-9.13 122.99-9.13 119.77 0ZM129.39-27.93L123.47-10.75 135.34-10.75 129.39-27.93ZM156.69 0.5L156.69 0.5Q153.79 0.5 151.38-0.6 148.96-1.7 147.53-3.74 146.09-5.78 146.11-8.63L146.11-8.63 147.86-8.63Q147.86-6.1 149.09-4.46 150.31-2.83 152.31-2.04 154.31-1.25 156.64-1.25L156.64-1.25Q159.41-1.25 161.35-2.21 163.29-3.18 164.3-4.69 165.31-6.2 165.31-7.85L165.31-7.85Q165.31-10.23 163.85-11.79 162.39-13.35 159.76-14.13L159.76-14.13 155.06-15.45Q151.01-16.78 149.01-18.43 147.01-20.08 147.01-23.13L147.01-23.13Q147.01-26.48 149.5-28.63 151.99-30.78 156.74-30.78L156.74-30.78Q160.89-30.78 163.3-28.89 165.71-27 166.11-24.1L166.11-24.1 164.26-24.1Q163.86-26.55 161.94-27.81 160.01-29.08 156.74-29.08L156.74-29.08Q153.01-29.08 151.01-27.35 149.01-25.63 149.01-22.98L149.01-22.98Q149.01-20.88 150.28-19.64 151.54-18.4 154.29-17.53L154.29-17.53 160.16-15.78Q163.31-14.93 165.31-13.03 167.31-11.13 167.31-7.85L167.31-7.85Q167.31-5.78 166.11-3.86 164.91-1.95 162.55-0.73 160.19 0.5 156.69 0.5ZM176.44 0L176.44-30.33 178.29-30.33 178.29-16.18 195.29-16.18 195.29-30.33 197.04-30.33 197.04 0 195.29 0 195.29-14.65 178.29-14.65 178.29 0 176.44 0ZM225.73 0L207.91 0 207.91-30.33 225.73-30.33 225.73-28.78 209.76-28.78 209.76-16.18 224.83-16.18 224.83-14.6 209.76-14.6 209.76-1.6 225.73-1.6 225.73 0ZM242.58-1.8L242.18-1.8 252.51-30.33 254.56-30.33 243.31 0 241.46 0 230.26-30.33 232.26-30.33 242.58-1.8ZM262.73 0L260.88 0 260.88-30.33 262.73-30.33 262.73 0ZM283.63 0.5L283.63 0.5Q279.6 0.5 276.76-1.64 273.93-3.78 272.43-7.4 270.93-11.03 270.93-15.5L270.93-15.5Q270.93-20.45 272.64-23.85 274.35-27.25 277.24-29.01 280.13-30.78 283.63-30.78L283.63-30.78Q288-30.78 290.91-28.5 293.82-26.23 295.25-22.6L295.25-22.6 293.2-22.05Q292.05-25.38 289.45-27.28 286.85-29.18 283.63-29.18L283.63-29.18Q280.82-29.18 278.39-27.6 275.95-26.03 274.44-22.98 272.93-19.93 272.93-15.5L272.93-15.5Q272.93-11.58 274.04-8.33 275.15-5.08 277.51-3.11 279.88-1.15 283.63-1.15L283.63-1.15Q287.9-1.15 290.55-3.46 293.2-5.78 293.2-9.68L293.2-9.68 295.35-9.68Q295.35-6.58 293.8-4.29 292.25-2 289.6-0.75 286.95 0.5 283.63 0.5ZM303.22 0L303.22-30.33 305.07-30.33 305.07-16.18 322.07-16.18 322.07-30.33 323.82-30.33 323.82 0 322.07 0 322.07-14.65 305.07-14.65 305.07 0 303.22 0Z" opacity="1" transform="matrix(1,0,0,1,0,0)" fill="#000000" class="undefined-text-0" data-fill-palette-color="primary" id="text-0"></path></svg></g></svg></g></svg></g></svg></g></svg></g></svg></g></svg></g><g><path d="M0 123.6c0-68.262 55.338-123.6 123.6-123.6 63.241 0 115.388 47.495 122.718 108.761l-1.09 0c-7.324-60.667-58.986-107.679-121.628-107.678-67.664 0-122.517 54.853-122.517 122.517 0 67.664 54.853 122.517 122.517 122.517 62.642 0 114.304-47.012 121.628-107.678h1.09c-7.33 61.266-59.478 108.761-122.718 108.761-68.262 0-123.6-55.338-123.6-123.6z" fill="#000000" stroke="transparent" data-fill-palette-color="tertiary"></path></g></svg></g><defs></defs></svg><rect width="395.52" height="247.2" fill="none" stroke="none" visibility="hidden"></rect></g></svg></g></svg>