<?xml version="1.0" standalone="no"?>
<!DOCTYPE svg PUBLIC "-//W3C//DTD SVG 20010904//EN"
 "http://www.w3.org/TR/2001/REC-SVG-20010904/DTD/svg10.dtd">
<svg version="1.0" xmlns="http://www.w3.org/2000/svg"
 width="1000.000000pt" height="1000.000000pt" viewBox="0 0 1000.000000 1000.000000"
 preserveAspectRatio="xMidYMid meet">
<metadata>
Created by potrace 1.14, written by Peter Selinger 2001-2017
</metadata>
<g transform="translate(0.000000,1000.000000) scale(0.100000,-0.100000)"
fill="#000000" stroke="none">
<path d="M0 5000 l0 -5000 5000 0 5000 0 0 5000 0 5000 -5000 0 -5000 0 0
-5000z m7058 1818 l-3 -363 -117 -3 -118 -3 -2 243 -3 243 -1937 3 -1938 2 0
-1940 0 -1940 1938 2 1937 3 3 243 2 243 118 -3 117 -3 3 -362 2 -363 -2185 0
-2185 0 0 2180 0 2180 2185 0 2185 0 -2 -362z m-2098 -1469 l805 -1000 5 998
5 998 193 3 192 2 0 -1350 0 -1350 -158 0 -157 0 -805 1001 -805 1000 -5 -998
-5 -998 -192 -3 -193 -2 0 1350 0 1350 158 0 157 0 805 -1001z"/>
</g>
</svg>
