<svg width="24" height="24" viewBox="0 0 24 24" fill="currentColor" xmlns="http://www.w3.org/2000/svg">
<path d="M2.44364 11.7504C8.08077 9.21022 11.8397 7.53557 13.7206 6.72646C19.0906 4.41629 20.2065 4.01499 20.9338 4.00159C21.0938 3.99882 21.4514 4.03982 21.6831 4.23426C21.8787 4.39844 21.9326 4.62022 21.9583 4.77588C21.9841 4.93154 22.0162 5.28614 21.9907 5.56321C21.6997 8.72566 20.4405 16.4001 19.7999 19.9421C19.5288 21.4408 18.9951 21.9434 18.4784 21.9925C17.3554 22.0994 16.5027 21.225 15.4151 20.4876C13.7132 19.3337 12.7517 18.6155 11.0997 17.4895C9.19056 16.1883 10.4282 15.4731 11.5162 14.3043C11.801 13.9984 16.7486 9.34381 16.8444 8.92157C16.8564 8.86876 16.8675 8.67192 16.7544 8.56798C16.6414 8.46404 16.4745 8.49958 16.3541 8.52785C16.1834 8.56792 13.4646 10.4266 8.19761 14.1038C7.42588 14.6519 6.72687 14.9189 6.10058 14.9049C5.41015 14.8895 4.08204 14.5012 3.09472 14.1692C1.88374 13.7621 0.921278 13.5468 1.00509 12.8554C1.04874 12.4952 1.52826 12.1269 2.44364 11.7504Z" fill="#27333E"/>
</svg>
