<svg width="75" height="75" viewBox="0 0 75 75" fill="none" xmlns="http://www.w3.org/2000/svg"> <path d="M37.5 0C16.7892 0 0 16.7892 0 37.5C0 58.2108 16.7892 75 37.5 75C58.2108 75 75 58.2108 75 37.5C75 16.7892 58.2108 0 37.5 0Z" fill="#40B3E0"></path> <path d="M55.7469 21.5713L49.0488 55.3415C49.0488 55.3415 48.1122 57.6835 45.5361 56.5594L30.0796 44.7094L24.4593 41.9929L14.9982 38.8078C14.9982 38.8078 13.5462 38.2928 13.4056 37.1686C13.265 36.0445 15.0451 35.4357 15.0451 35.4357L52.6552 20.6818C52.6552 20.6818 55.7466 19.3236 55.7466 21.5719" fill="white"></path> <path d="M28.892 54.9618C28.892 54.9618 28.4408 54.9196 27.8783 53.1396C27.3167 51.3598 24.4594 41.9924 24.4594 41.9924L47.1756 27.5666C47.1756 27.5666 48.4872 26.7703 48.4403 27.5666C48.4403 27.5666 48.6744 27.7072 47.9716 28.3629C47.2693 29.0189 30.1268 44.4281 30.1268 44.4281" fill="#D2E5F1"></path> <path d="M36.0061 49.2524L29.8927 54.8264C29.8927 54.8264 29.4146 55.1891 28.892 54.9618L30.0627 44.6083" fill="#B5CFE4"></path> </svg>